<?xml version="1.0" encoding="iso-8859-1"?>
<!-- Generator: Adobe Illustrator 19.0.0, SVG Export Plug-In . SVG Version: 6.00 Build 0)  -->
<svg version="1.1" id="Capa_1" xmlns="http://www.w3.org/2000/svg" xmlns:xlink="http://www.w3.org/1999/xlink" x="0px" y="0px"
	 viewBox="0 0 512 512" style="enable-background:new 0 0 512 512;" xml:space="preserve">
<g>
	<g>
		<path d="M469.333,21.333H42.667C19.146,21.333,0,40.469,0,64v298.667c0,23.531,19.146,42.667,42.667,42.667h149.381
			c-0.448,17.018-3.698,44.24-15.902,57.094c-4.479,4.708-9.604,6.906-16.146,6.906c-5.896,0-10.667,4.771-10.667,10.667
			c0,5.896,4.771,10.667,10.667,10.667h192c5.896,0,10.667-4.771,10.667-10.667c0-5.896-4.771-10.667-10.667-10.667
			c-6.542,0-11.667-2.188-16.125-6.896c-12.174-12.79-15.445-40.051-15.91-57.104h149.369c23.521,0,42.667-19.135,42.667-42.667V64
			C512,40.469,492.854,21.333,469.333,21.333z M256,384.062c-11.792,0-21.396-9.604-21.396-21.396s9.604-21.396,21.396-21.396
			s21.396,9.604,21.396,21.396S267.792,384.062,256,384.062z M42.667,320V139.24l26.594-8.865l38.531,77.063
			c2.385,4.75,7.885,7.063,12.917,5.344l57.74-19.24l38.01,38c2.083,2.083,4.813,3.125,7.542,3.125s5.458-1.042,7.542-3.125
			c4.167-4.167,4.167-10.917,0-15.083l-42.667-42.667c-2.865-2.844-7.063-3.885-10.917-2.573l-55.219,18.406l-38.531-77.063
			c-2.375-4.75-7.896-7.031-12.917-5.344l-28.625,9.542V64h426.667l0.018,256H42.667z"/>
	</g>
</g>
<g>
</g>
<g>
</g>
<g>
</g>
<g>
</g>
<g>
</g>
<g>
</g>
<g>
</g>
<g>
</g>
<g>
</g>
<g>
</g>
<g>
</g>
<g>
</g>
<g>
</g>
<g>
</g>
<g>
</g>
</svg>
