<svg id="Capa_1" enable-background="new 0 0 512 512" height="512" viewBox="0 0 512 512" width="512" xmlns="http://www.w3.org/2000/svg"><g><path d="m303.654 217.814c-.85 4.055-4.818 6.634-8.871 5.783-4.055-.85-6.635-4.847-5.785-8.873 4.422-20.439 15.934-38.668 31.893-51.652 15.478-12.615 35.154-20.298 56.529-20.298 24.805 0 47.258 10.319 63.586 26.648 16.527 16.527 26.791 39.293 26.791 63.729 0 39.576-34.701 81.418-63.559 112.348 3.09 2.722 5.754 5.925 7.908 9.497 3.658 6.095 5.783 13.238 5.783 20.808 0 11.198-4.535 21.318-11.877 28.661-7.314 7.313-17.465 11.85-28.633 11.85-11.199 0-21.318-4.536-28.66-11.85-7.314-7.343-11.852-17.463-11.852-28.661 0-7.569 2.098-14.685 5.756-20.78 2.125-3.543 4.789-6.746 7.852-9.468-24.408-26.053-52.898-60.071-61.119-93.778-.965-4.026 1.502-8.051 5.527-9.016 3.996-.992 8.051 1.475 9.014 5.5 7.77 31.808 37.082 65.57 61.094 90.888 4.109 4.309 8.25 8.59 12.389 12.842 3.77-3.94 7.568-7.882 11.338-11.85 27.812-29.37 64.041-70.731 64.041-106.99 0-20.326-8.56-39.292-22.395-53.126-13.637-13.636-32.348-22.254-52.984-22.254-17.832 0-34.189 6.406-47.088 16.895-13.351 10.885-22.99 26.109-26.678 43.147zm12.561 169.272c3.996-1.049 8.105 1.332 9.154 5.302 1.08 3.996-1.303 8.107-5.301 9.185l-17.859 4.819c-3.996 1.077-8.078-1.304-9.156-5.302-1.078-3.997 1.305-8.079 5.301-9.155zm-45.983 12.444c3.996-1.049 8.107 1.306 9.184 5.302 1.049 3.997-1.303 8.108-5.301 9.186l-17.859 4.819c-3.998 1.077-8.108-1.305-9.186-5.301-1.049-3.998 1.305-8.08 5.303-9.157zm56.727-58.2c3.826 1.588 5.641 5.953 4.053 9.781-1.588 3.827-5.953 5.641-9.779 4.054l-17.068-7.143c-3.826-1.588-5.641-5.982-4.053-9.809 1.588-3.8 5.983-5.614 9.809-4.026zm-43.914-18.398c3.828 1.588 5.643 5.954 4.055 9.78-1.588 3.8-5.982 5.614-9.781 4.026l-17.066-7.144c-3.826-1.588-5.641-5.954-4.053-9.781 1.588-3.826 5.982-5.642 9.779-4.054zm-43.912-18.426c3.799 1.587 5.613 5.981 4.025 9.779-1.588 3.828-5.953 5.642-9.779 4.055l-17.068-7.145c-3.797-1.587-5.611-5.981-4.023-9.78 1.586-3.827 5.951-5.642 9.779-4.054zm-43.942-18.4c3.828 1.588 5.643 5.953 4.055 9.781-1.588 3.826-5.953 5.641-9.781 4.054l-17.066-7.145c-3.826-1.588-5.641-5.982-4.053-9.808 1.588-3.8 5.981-5.614 9.809-4.026zm-43.912-18.398c3.828 1.588 5.643 5.954 4.055 9.78-1.59 3.827-5.982 5.614-9.781 4.025l-17.066-7.143c-3.826-1.588-5.641-5.954-4.053-9.781 1.586-3.828 5.98-5.613 9.779-4.055zm101.405-155.268c3.402-2.325 8.021-1.445 10.377 1.928 2.324 3.402 1.445 8.052-1.957 10.376l-15.223 10.489c-3.402 2.324-8.053 1.475-10.377-1.928-2.324-3.402-1.475-8.052 1.928-10.376zm-39.264 26.989c3.402-2.324 8.051-1.475 10.377 1.928 2.324 3.402 1.473 8.052-1.928 10.376l-15.254 10.46c-3.4 2.354-8.049 1.475-10.375-1.928-2.324-3.4-1.445-8.051 1.928-10.375zm-39.234 26.96c3.402-2.325 8.051-1.445 10.375 1.928 2.326 3.402 1.445 8.052-1.928 10.376l-15.252 10.489c-3.402 2.324-8.051 1.445-10.375-1.928-2.324-3.402-1.475-8.052 1.928-10.376zm-39.264 26.988c3.402-2.353 8.051-1.475 10.375 1.928 2.326 3.402 1.475 8.051-1.926 10.376l-15.254 10.46c-3.4 2.354-8.021 1.475-10.375-1.928-2.324-3.401-1.445-8.051 1.955-10.375zm175.197-146.479c11.197 0 21.318 4.536 28.633 11.851 7.342 7.342 11.877 17.462 11.877 28.632 0 11.197-4.535 21.318-11.877 28.661-7.315 7.314-17.436 11.85-28.633 11.85-11.199 0-21.318-4.535-28.633-11.85-7.342-7.343-11.879-17.464-11.879-28.661 0-11.17 4.537-21.29 11.879-28.632 7.315-7.315 17.434-11.851 28.633-11.851zm18.029 22.453c-4.621-4.622-10.998-7.456-18.029-7.456s-13.41 2.834-18.031 7.456c-4.619 4.62-7.482 10.999-7.482 18.029 0 7.059 2.863 13.438 7.482 18.059 4.621 4.592 11 7.456 18.031 7.456s13.408-2.864 18.029-7.456c4.621-4.62 7.484-11 7.484-18.059.001-7.03-2.862-13.409-7.484-18.029zm-253.695 135.422c11.17 0 21.291 4.537 28.633 11.85 7.342 7.343 11.879 17.463 11.879 28.661 0 11.169-4.537 21.29-11.879 28.633-7.342 7.342-17.463 11.85-28.633 11.85-11.197 0-21.318-4.508-28.662-11.85-7.312-7.343-11.85-17.464-11.85-28.633 0-11.198 4.537-21.318 11.85-28.661 7.344-7.313 17.465-11.85 28.662-11.85zm18.031 22.453c-4.623-4.592-11-7.455-18.031-7.455-7.059 0-13.438 2.863-18.059 7.455-4.592 4.621-7.455 10.999-7.455 18.059 0 7.03 2.863 13.409 7.455 18.03 4.621 4.62 11 7.455 18.059 7.455 7.031 0 13.408-2.835 18.031-7.455 4.619-4.621 7.455-11 7.455-18.03.001-7.06-2.835-13.438-7.455-18.059zm301.463 129.158-6.068 6.294c-3.088 3.26-6.463 4.961-10.289 5.018-4.99.084-8.193-2.467-11.482-5.868-1.701-1.758-3.457-3.571-5.272-5.443-2.098 1.786-3.885 3.94-5.33 6.322-2.297 3.798-3.6 8.277-3.6 13.097 0 7.06 2.861 13.438 7.484 18.059 4.592 4.593 10.971 7.455 18.029 7.455 7.029 0 13.408-2.862 18.029-7.455 4.621-4.621 7.484-10.999 7.484-18.059 0-4.819-1.332-9.327-3.629-13.125-1.416-2.382-3.258-4.509-5.356-6.295zm-200.088 29.001c11.197 0 21.318 4.535 28.66 11.851 7.314 7.342 11.852 17.463 11.852 28.661 0 11.169-4.537 21.318-11.852 28.631-7.342 7.343-17.463 11.88-28.66 11.88-11.17 0-21.291-4.537-28.633-11.88-7.342-7.312-11.85-17.462-11.85-28.631 0-11.198 4.508-21.319 11.85-28.661 7.342-7.316 17.464-11.851 28.633-11.851zm18.059 22.48c-4.621-4.62-11-7.483-18.059-7.483-7.029 0-13.408 2.863-18.029 7.483-4.621 4.594-7.457 10.972-7.457 18.031 0 7.029 2.836 13.408 7.457 18.029s11 7.484 18.029 7.484c7.059 0 13.438-2.863 18.059-7.484 4.592-4.621 7.455-11 7.455-18.029 0-7.059-2.863-13.437-7.455-18.031zm202.469 29.824c3.119-2.721 7.824-2.409 10.545.709 2.723 3.118 2.41 7.825-.707 10.546-50.463 44.082-114.049 65.06-177.012 62.905-62.596-2.154-124.51-27.073-172.25-74.811-47.738-47.741-72.658-109.654-74.813-172.25-2.154-62.935 18.824-126.55 62.906-177.012 2.721-3.118 7.428-3.43 10.547-.708 3.117 2.722 3.43 7.427.707 10.546-41.502 47.484-61.232 107.414-59.189 166.721 1.982 58.852 25.484 117.138 70.445 162.1s103.246 68.462 162.1 70.475c59.307 2.012 119.236-17.719 166.721-59.221zm-316.772-363.377c-3.119 2.721-7.824 2.409-10.547-.709-2.721-3.118-2.41-7.825.709-10.546 50.461-44.082 114.076-65.06 177.012-62.905 62.594 2.154 124.508 27.072 172.248 74.812 47.738 47.74 72.658 109.653 74.812 172.249 2.154 62.963-18.824 126.55-62.906 177.012-2.721 3.118-7.428 3.43-10.545.708-3.119-2.722-3.43-7.427-.709-10.546 41.502-47.484 61.232-107.414 59.221-166.721-2.014-58.852-25.514-117.138-70.475-162.1-44.963-44.962-103.248-68.461-162.1-70.445-59.306-2.043-119.235 17.687-166.72 59.191zm279.805 109.653c13.58 0 25.883 5.5 34.785 14.401 8.9 8.901 14.4 21.205 14.4 34.784s-5.5 25.883-14.4 34.784c-8.902 8.902-21.205 14.43-34.785 14.43s-25.883-5.527-34.785-14.43c-8.902-8.901-14.4-21.205-14.4-34.784s5.498-25.883 14.4-34.784 21.205-14.401 34.785-14.401zm24.182 25.033c-6.209-6.209-14.742-10.036-24.182-10.036-9.441 0-18.002 3.827-24.182 10.036-6.182 6.18-10.008 14.712-10.008 24.152s3.826 18.002 10.008 24.182c6.18 6.181 14.74 10.008 24.182 10.008 9.439 0 17.973-3.827 24.182-10.008 6.18-6.18 10.006-14.741 10.006-24.182s-3.827-17.972-10.006-24.152z"/></g></svg>