<?xml version="1.0" encoding="iso-8859-1"?>
<!-- Generator: Adobe Illustrator 18.0.0, SVG Export Plug-In . SVG Version: 6.00 Build 0)  -->
<!DOCTYPE svg PUBLIC "-//W3C//DTD SVG 1.1//EN" "http://www.w3.org/Graphics/SVG/1.1/DTD/svg11.dtd">
<svg version="1.1" id="Capa_1" xmlns="http://www.w3.org/2000/svg" xmlns:xlink="http://www.w3.org/1999/xlink" x="0px" y="0px"
	 viewBox="0 0 230 230" style="enable-background:new 0 0 230 230;" xml:space="preserve">
<g>
	<path d="M224,19.833H6c-3.313,0-6,2.687-6,6v140.264c0,3.313,2.687,6,6,6h103v10.868H90.701c-11.69,0-21.201,9.511-21.201,21.201
		c0,3.313,2.687,6,6,6h79c3.313,0,6-2.687,6-6c0-11.69-9.511-21.201-21.201-21.201H121v-10.868h103c3.313,0,6-2.687,6-6V25.833
		C230,22.52,227.313,19.833,224,19.833z M146.269,198.167H83.731c1.688-1.959,4.187-3.201,6.97-3.201h48.598
		C142.082,194.965,144.581,196.208,146.269,198.167z M218,160.097H12V31.833h206V160.097z"/>
	<path d="M209.213,39.587H20.787v112.756h188.426V39.587z M197.213,140.343H32.787V51.587h164.426V140.343z"/>
	<path d="M92.056,109.848h9.062v3.354c0,7.655,6.228,13.883,13.883,13.883s13.883-6.228,13.883-13.883v-3.354h9.062
		c7.655,0,13.883-6.228,13.883-13.883c0-7.655-6.228-13.883-13.883-13.883h-9.062v-3.354c0-7.655-6.228-13.883-13.883-13.883
		s-13.883,6.228-13.883,13.883v3.354h-9.062c-7.655,0-13.883,6.228-13.883,13.883C78.173,103.62,84.401,109.848,92.056,109.848z
		 M92.056,90.082h17.062V78.729c0-3.244,2.639-5.883,5.883-5.883s5.883,2.639,5.883,5.883v11.354h17.062
		c3.244,0,5.883,2.639,5.883,5.883c0,3.244-2.639,5.883-5.883,5.883h-17.062v11.354c0,3.244-2.639,5.883-5.883,5.883
		s-5.883-2.639-5.883-5.883v-11.354H92.056c-3.244,0-5.883-2.639-5.883-5.883C86.173,92.721,88.812,90.082,92.056,90.082z"/>
</g>
<g>
</g>
<g>
</g>
<g>
</g>
<g>
</g>
<g>
</g>
<g>
</g>
<g>
</g>
<g>
</g>
<g>
</g>
<g>
</g>
<g>
</g>
<g>
</g>
<g>
</g>
<g>
</g>
<g>
</g>
</svg>
