<svg height="512" viewBox="0 0 60 60" width="512" xmlns="http://www.w3.org/2000/svg"><g id="061---Computer-Repairs"><path id="Shape" d="m57 0h-54c-1.65685425 0-3 1.34314575-3 3v44c0 1.6568542 1.34314575 3 3 3h17v3h-4c-2.7600532.0033061-4.9966939 2.2399468-5 5 0 1.1045695.8954305 2 2 2h34c1.1045695 0 2-.8954305 2-2-.0033061-2.7600532-2.2399468-4.9966939-5-5h-4v-3h17c1.6568542 0 3-1.3431458 3-3v-44c0-1.65685425-1.3431458-3-3-3zm-54 2h54c.5522847 0 1 .44771525 1 1v37h-56v-37c0-.55228475.44771525-1 1-1zm44 56h-34c0-1.6568542 1.3431458-3 3-3h28c1.6557127.0027526 2.9972474 1.3442873 3 3zm-9-5h-16v-3h16zm19-5h-54c-.55228475 0-1-.4477153-1-1v-5h56v5c0 .5522847-.4477153 1-1 1z"/><circle id="Oval" cx="30" cy="45" r="1"/><path id="Shape" d="m7.01 30h2.89c.5443675-.0205035 1.017555.3705214 1.1.909.0254872.2788643-.0671183.5556391-.2552953.7630139-.1881769.2073748-.4546829.3263481-.7347047.3279861h-2.99c-.76199203.0017617-1.45712462.4353077-1.79390581 1.1188378-.33678119.68353-.25699337 1.498886.20590581 2.1041622 1.35165783 1.7847085 3.47437616 2.8165791 5.7128132 2.7770447 2.2384371-.0395344 4.3233939-1.1457192 5.6111868-2.9770447h26.513c1.2815965 1.8317514 3.3623399 2.9396305 5.5975451 2.9803784 2.2352052.040748 4.3549462-.9905558 5.7024549-2.7743784.4657977-.6055996.5471456-1.4232144.2098056-2.1087216s-1.034791-1.1198728-1.7988056-1.1202784h-2.99c-.2798312-.0016623-.5461636-.1204997-.7343071-.3276477-.1881436-.2071479-.2808831-.4836523-.2556929-.7623523.0819888-.538878.5553038-.9304386 1.1-.91h2.89c.7468838.0000376 1.4315569-.4160909 1.7754647-1.0790862s.2897404-1.4623739-.1404647-2.0729138c-1.3355195-1.8147073-3.4646038-2.8735003-5.717572-2.843347s-4.3529536 1.1455475-5.639428 2.995347h-2.268v-1c0-2.209139-1.790861-4-4-4h-1.39c.4360232-.6285681.7754542-1.3188906 1.007-2.048 1.8763779-.2886035 3.2897582-1.8590317 3.3797928-3.7553385.0900345-1.8963069-1.168199-3.5935803-3.0087928-4.0586615.0058912-2.111628-1.1457276-4.05671215-3-5.067.061-1.94-2.013-3.071-3.988-3.071-1.993 0-4.049 1.147-3.991 3.071-1.85443 1.01012454-3.0061101 2.9553123-3 5.067-1.8405938.4650812-3.0988273 2.1623546-3.0087928 4.0586615.0900346 1.8963068 1.5034149 3.466735 3.3797928 3.7553385.232478.7292843.5729246 1.4196158 1.01 2.048h-1.39c-2.209139 0-4 1.790861-4 4v.968h-2.287c-1.2932036-1.8375214-3.391418-2.9407306-5.638259-2.9645109-2.24684107-.0237803-4.36793527 1.0347723-5.699741 2.8445109-.43020505.6105399-.48437252 1.4099185-.14046473 2.0729138s1.02858096 1.0791238 1.77546473 1.0790862zm19.516-6c2.1240748 1.3334148 4.8239252 1.3334148 6.948 0h1.526v2.983h-10v-2.983zm-4.526 5h16v4h-16zm22.919-.879c.9189803-1.3061314 2.4078159-2.0932501 4.0046662-2.11719s3.1086124.718194 4.0663338 1.99619h-2.89c-1.5957437-.0263474-2.9444759 1.1766347-3.1 2.765-.0636723.8333419.2224727 1.655572.7897533 2.2693354.5672806.6137635 1.3644783.963645 2.2002467.9656646h2.989l-.007.014c-.962748 1.2721962-2.4748153 2.0085694-4.0700161 1.9820881s-3.0819932-.8126373-4.0019839-2.1160881c-.377274-.5438016-.994195-.871634-1.656-.88h-3.244v-4h3.268c.6604025-.0075811 1.2760115-.3353341 1.651-.879zm-5.919-2.121v.993h-2v-2.993c1.1045695 0 2 .8954305 2 2zm-9-20c1.221 0 2 .592 2 1s-.779 1-2 1-2-.592-2-1 .779-1 2-1zm-3.115 2.881c1.8080888 1.4936489 4.4219112 1.4936489 6.23 0 1.1205747.64869344 1.831672 1.8253049 1.885 3.119.0794255 1.0716513-.3318083 2.1214377-1.118 2.854-2.4708261-1.1268118-5.3074162-1.1341-7.784-.02-.7753661-.7302646-1.1789596-1.771962-1.098-2.834.053328-1.2936951.7644253-2.47030656 1.885-3.119zm-3.537 5.249c.549 1.637 1.913 3.234 3.528 2.575 1.9782613-.931048 4.2687387-.931048 6.247 0 1.615.664 2.984-.939 3.532-2.585.9179817.3173987 1.4752053 1.2484664 1.3211234 2.2074716-.1540818.9590053-.9749179 1.6686623-1.9461234 1.6825284-.5339532-.1037036-1.0528733.2383928-1.168.77-.4158565 2.3811009-2.4460765 4.1432417-4.862 4.22-2.4162381-.0768516-4.4465655-1.8395033-4.862-4.221-.1000517-.5287667-.6088611-.8770642-1.138-.779-.973063.0027025-1.8052236-.6990073-1.9668832-1.6585515-.1616597-.9595441.3946489-1.8951769 1.3148832-2.2114485zm-2.348 11.87c0-1.1045695.8954305-2 2-2v2.973h-2zm-5.92 2.121c.3755366.543565.9913712.8712397 1.652.879h3.268v4h-3.244c-.6625269.0085011-1.2799625.3371543-1.657.882-.9222625 1.3043156-2.4122357 2.0894444-4.0095031 2.1127737-1.59726732.0233293-3.10953488-.7179494-4.0694969-1.9947737h2.99c.7920627.0063182 1.5527778-.3090827 2.108-.874.8751232-.8698066 1.1284428-2.1867229.6384596-3.3191189-.4899833-1.1323959-1.6233317-1.8493064-2.8564596-1.8068811l-2.915.033c.95121779-1.2918718 2.46584847-2.0472465 4.0700442-2.0298075 1.6041957.0174391 3.1020471.8055623 4.0249558 2.1178075z"/></g></svg>