<svg id="Layer_1" enable-background="new 0 0 511.5 511.5" height="512" viewBox="0 0 511.5 511.5" width="512" xmlns="http://www.w3.org/2000/svg"><g><g><path d="m348.5 85.85h-15v153.55h-186.344l-73.516 50.68v-50.68h-58.64v-223.91h318.5v55.36h15v-70.36h-348.5v253.91h58.64v64.24l93.185-64.24h196.675z"/><path d="m116.682 132.44-14.903 1.701c1.888 16.532 9.104 31.488 20.869 43.252 28.521 28.522 74.681 28.526 103.206 0 28.454-28.454 28.454-74.752 0-103.207-13.786-13.784-32.112-21.376-51.604-21.376-37.403 0-68.296 28.058-72.472 64.63l14.903 1.701c1.499-13.128 7.229-25.005 16.572-34.348 22.659-22.66 59.33-22.664 81.993 0 22.619 22.619 22.621 59.373 0 81.994-22.659 22.66-59.33 22.664-81.993 0-9.342-9.342-15.072-21.219-16.571-34.347z"/><path d="m153.465 144.861v15h13.285v8.521h15v-8.521h13.285v-41.57h-26.57v-11.571h26.57v-15h-13.285v-8.52h-15v8.52h-13.285v41.571h26.57v11.57z"/><path d="m371 192.87v15h125.5v223.9h-58.64v50.68l-73.515-50.68h-186.345v-154.87h-15v169.87h196.675l93.185 64.24v-64.24h58.64v-253.9z"/></g><g><g><path d="m45.852 118.291h15v15h-15z"/></g><g><path d="m287.852 118.291h15v15h-15z"/></g></g><g><path d="m389.25 336.048h-15v-15h15zm-45 0h-15v-15h15zm-45 0h-15v-15h15z"/></g></g></svg>